<svg id="SvgjsSvg1018" width="288" height="288" xmlns="http://www.w3.org/2000/svg" version="1.1" xmlns:xlink="http://www.w3.org/1999/xlink" xmlns:svgjs="http://svgjs.com/svgjs"><defs id="SvgjsDefs1019"></defs><g id="SvgjsG1020"><svg xmlns="http://www.w3.org/2000/svg" width="288" height="288" data-name="016_FOOD" viewBox="0 0 24 24"><path fill="#f8fafc" d="M16 22H8a3 3 0 01-3-3V15a1 1 0 012 0v4a1 1 0 001 1h8a1 1 0 001-1V15a1 1 0 012 0v4A3 3 0 0116 22zM18 12a1 1 0 01-1-1V5a1 1 0 00-1-1H8A1 1 0 007 5v6a1 1 0 01-2 0V5A3 3 0 018 2h8a3 3 0 013 3v6A1 1 0 0118 12z" class="color333 svgShape"></path><path fill="#f8fafc" d="M10 12a1 1 0 01-1-1V3a1 1 0 012 0v8A1 1 0 0110 12zM14 12a1 1 0 01-1-1V3a1 1 0 012 0v8A1 1 0 0114 12z" class="color333 svgShape"></path><path fill="#f8fafc" d="M18 8H6A1 1 0 016 6H18a1 1 0 010 2zM18 12H6a1 1 0 010-2H18a1 1 0 010 2z" class="color333 svgShape"></path><polygon fill="#f8fafc" points="18 19 12 14 18 14 18 19" class="color333 svgShape"></polygon></svg></g></svg>