<svg xmlns="http://www.w3.org/2000/svg" xmlns:svgjs="http://svgjs.com/svgjs" xmlns:xlink="http://www.w3.org/1999/xlink" width="288" height="288"><svg xmlns="http://www.w3.org/2000/svg" width="288" height="288" version="1.0" viewBox="0 0 128 128"><g fill="#f8fafc" class="color000 svgShape" transform="matrix(.1 0 0 -.1 0 128)"><path d="M387 1274 c-4 -4 -51 -9 -104 -9 -119 -2 -133 -13 -133 -109 0 -33-12 -119 -27 -191 -24 -115 -27 -152 -27 -325 0 -173 3 -210 27 -325 15 -72
27 -158 27 -191 0 -96 13 -107 136 -112 54 -2 122 -3 149 -1 28 1 71 2 98 1
60 -1 154 -1 215 0 26 1 70 0 97 -1 28 -2 95 -1 149 1 123 5 136 16 136 112 0
33 12 119 27 191 24 115 27 153 27 325 0 174 -3 209 -27 322 -15 70 -27 157
-27 193 0 52 -4 69 -20 85 -11 11 -23 21 -27 21 -23 4 -195 10 -238 8 -27 -1
-71 -2 -97 -1 -74 1 -163 1 -215 -1 -27 -1 -68 2 -93 7 -25 4 -49 4 -53 0z
m158 -84 c28 1 71 3 98 2 26 0 76 0 112 0 99 0 163 -1 238 -3 l68 -2 -3 -41
-3 -41 -415 0 -415 0 -3 44 -3 43 48 -6 c26 -4 62 -2 78 4 17 5 57 6 90 3 33
-4 83 -5 110 -3z m540 -251 c37 -203 37 -395 0 -598 l-17 -91 -428 0 -428 0
-16 89 c-40 218 -40 383 0 604 l16 87 428 0 428 0 17 -91z m-25 -808 l0 -38
-67 -2 c-75 -2 -139 -3 -238 -3 -36 0 -87 0 -115 0 -27 0 -79 0 -115 0 -99 0
-163 1 -237 3 l-68 2 0 38 0 39 420 0 420 0 0 -39z" class="color000 svgShape"/><path d="M446 840 c-42 -13 -90 -49 -116 -88 -28 -40 -38 -132 -21 -185 15
-46 88 -112 137 -126 22 -6 116 -11 210 -11 163 0 172 1 222 26 68 34 102 88
102 163 0 147 -141 234 -272 168 l-46 -23 -35 32 c-51 47 -117 63 -181 44z
m120 -89 c19 -12 53 -54 85 -108 29 -48 59 -98 67 -110 l14 -23 -134 0 c-124
0 -138 2 -169 23 -22 15 -39 38 -49 65 -13 37 -13 47 0 84 28 78 117 111 186
69z m312 -54 c33 -34 39 -93 13 -135 -19 -29 -66 -62 -74 -51 -2 2 -27 44 -55
93 -57 97 -57 109 2 124 40 11 84 -1 114 -31z" class="color000 svgShape"/></g></svg></svg>