<svg id="SvgjsSvg1001" width="288" height="288" xmlns="http://www.w3.org/2000/svg" version="1.1" xmlns:xlink="http://www.w3.org/1999/xlink" xmlns:svgjs="http://svgjs.com/svgjs"><defs id="SvgjsDefs1002"></defs><g id="SvgjsG1008"><svg xmlns="http://www.w3.org/2000/svg" enable-background="new 0 0 376.412 376.412" viewBox="0 0 376.412 376.412" width="288" height="288"><path d="M185.848,253.041h1.817c4.418,0,8,3.582,8,8s-3.582,8-8,8h-1.817c-4.418,0-8-3.582-8-8S181.43,253.041,185.848,253.041z
	 M174.559,241.796c2.047,0,4.094-0.781,5.656-2.342l1.289-1.289c3.124-3.124,3.125-8.188,0.002-11.313
	c-3.124-3.125-8.188-3.125-11.314-0.002l-1.289,1.289c-3.124,3.124-3.125,8.188-0.002,11.313
	C170.463,241.015,172.511,241.796,174.559,241.796z M147.318,291.572c-4.418,0-8,3.582-8,8v1.819c0,4.418,3.582,8,8,8s8-3.582,8-8
	v-1.819C155.318,295.154,151.736,291.572,147.318,291.572z M170.193,295.233c1.562,1.561,3.607,2.341,5.654,2.341
	c2.049,0,4.097-0.782,5.659-2.345c3.123-3.125,3.121-8.191-0.005-11.314l-1.289-1.288c-3.124-3.123-8.189-3.121-11.313,0.004
	c-3.123,3.125-3.121,8.191,0.005,11.314L170.193,295.233z M114.417,239.455c1.563,1.562,3.609,2.342,5.656,2.342
	c2.048,0,4.096-0.781,5.658-2.344c3.123-3.125,3.122-8.19-0.002-11.313l-1.289-1.289c-3.126-3.125-8.19-3.122-11.314,0.002
	c-3.123,3.125-3.122,8.19,0.003,11.313L114.417,239.455z M118.784,297.572c2.046,0,4.093-0.78,5.654-2.341l1.289-1.288
	c3.126-3.123,3.128-8.188,0.005-11.314c-3.124-3.125-8.189-3.128-11.313-0.004l-1.289,1.288c-3.126,3.123-3.128,8.188-0.005,11.314
	C114.688,296.791,116.735,297.572,118.784,297.572z M292.187,55.548v312.864c0,4.418-3.582,8-8,8H92.226c-4.418,0-8-3.582-8-8
	V55.548c0-4.418,3.582-8,8-8h126.232V16h-9.484v8.877c0,4.418-3.582,8-8,8s-8-3.582-8-8V16h-9.661v8.699c0,4.418-3.582,8-8,8
	s-8-3.582-8-8V16h-9.358v8.699c0,4.418-3.582,8-8,8s-8-3.582-8-8V8c0-4.418,3.582-8,8-8h76.504c4.418,0,8,3.582,8,8v39.548h49.729
	C288.604,47.548,292.187,51.129,292.187,55.548z M207.28,117.147c0.147,10.449,8.693,18.904,19.178,18.904
	s19.03-8.455,19.178-18.905c-0.946-5.303-12.894-30.134-18.664-42.129c-0.173-0.359-0.344-0.715-0.514-1.067
	c-0.171,0.356-0.344,0.716-0.52,1.08C220.17,87.021,208.227,111.845,207.28,117.147z M100.226,306.54
	c0.307,0.229,0.602,0.483,0.881,0.762c12.347,12.334,28.759,19.126,46.212,19.126c36.054,0,65.385-29.333,65.385-65.387
	s-29.331-65.387-65.385-65.387c-17.929,0-34.65,7.109-47.093,20.021V306.54z M276.187,63.548h-36.976
	c0.694,1.448,1.426,2.966,2.179,4.533c14.279,29.679,20.248,43.018,20.248,48.792c0,19.398-15.781,35.179-35.18,35.179
	s-35.18-15.781-35.18-35.179c0-5.773,5.968-19.108,20.242-48.779c0.756-1.571,1.488-3.094,2.185-4.545H100.226v131.076
	c13.647-9.733,29.925-14.97,47.093-14.97c44.876,0,81.385,36.51,81.385,81.387s-36.509,81.387-81.385,81.387
	c-17.116,0-33.427-5.248-47.093-14.983v32.967h175.961V63.548z M146.548,269.041h1.537c4.418,0,8-3.582,8-8s-3.582-8-8-8h-1.537
	c-4.418,0-8,3.582-8,8S142.13,269.041,146.548,269.041z M147.318,230.511c4.418,0,8-3.582,8-8v-1.82c0-4.418-3.582-8-8-8
	s-8,3.582-8,8v1.82C139.318,226.929,142.9,230.511,147.318,230.511z" fill="#f8fafc" class="color000 svgShape"></path></svg></g></svg>