<svg id="SvgjsSvg1001" width="288" height="288" xmlns="http://www.w3.org/2000/svg" version="1.1" xmlns:xlink="http://www.w3.org/1999/xlink" xmlns:svgjs="http://svgjs.com/svgjs"><defs id="SvgjsDefs1002"></defs><g id="SvgjsG1008"><svg xmlns="http://www.w3.org/2000/svg" enable-background="new 0 0 26 26" viewBox="0 0 26 26" width="288" height="288"><path fill="none" stroke="#f8fafc" stroke-linecap="round" stroke-linejoin="round" stroke-miterlimit="10" stroke-width="2" d="M19,6
		c-0.027,0-0.053,0.004-0.08,0.005C18.959,4.327,18.924,2.643,18.785,1H1.171c0,0,1.95,4.691,1.95,7.033
		C3.122,23.521,7.02,25,7.02,25H15c0,0,2-2.25,2.594-7.025C17.725,17.988,17.856,18,18,18c2.391,0,5.888-2.889,6.784-8.949
		C24.924,8.111,24.846,6,23,6S21.762,6,19,6z M18,15c0,0,0.619-3.81,0.619-6h2.952C21.334,14.238,18,15,18,15z" class="colorStroke030104 svgStroke"></path><path fill="none" stroke="#f8fafc" stroke-linecap="round" stroke-linejoin="round" stroke-miterlimit="10" stroke-width="2" d="
		M19.063,6c-4.053,0-2.976-0.938-6.938-0.938c-4.293,0-5.875,2-9.063,2" class="colorStroke030104 svgStroke"></path></svg></g></svg>