<svg xmlns="http://www.w3.org/2000/svg" xmlns:svgjs="http://svgjs.com/svgjs" xmlns:xlink="http://www.w3.org/1999/xlink" width="288" height="288"><svg xmlns="http://www.w3.org/2000/svg" width="288" height="288" enable-background="new 0 0 460 460" viewBox="0 0 460 460"><path fill="#f8fafc" d="m454.931,95.505c-6.668-17.043-19.416-35.503-35.892-51.979-16.478-16.477-34.938-29.224-51.98-35.892-19.78-7.74-36.095-6.585-45.935,3.253l-116.046,116.047c-9.84,9.839-10.996,26.153-3.255,45.935 5.111,13.063 13.811,26.954 25.009,40.15-2.298,1.535-4.498,3.108-6.563,4.725-16.724,13.098-24.023,27.734-20.554,41.209l1.525,5.921c0,0-61.622-61.622-62.363-62.363-9.84-9.839-26.152-10.997-45.936-3.254-17.043,6.668-35.503,19.416-51.979,35.892-16.477,16.478-29.224,34.938-35.892,51.98-7.741,19.782-6.586,36.096 3.253,45.935l116.048,116.047c5.536,5.536 13.123,8.324 22.223,8.324 7.073,0 15.061-1.684 23.712-5.069 17.043-6.668 35.503-19.416 51.979-35.892 5.035-5.035 9.712-10.257 13.981-15.566l4.371,16.977c3.47,13.476 16.929,22.766 37.9,26.159 5.914,0.957 12.287,1.43 18.98,1.43 13.753,0 28.849-1.999 44.029-5.908 22.566-5.811 42.928-15.225 57.336-26.508 16.724-13.098 24.023-27.734 20.554-41.209 0,0-40.493-156.984-40.609-157.559 0,0 72.097-72.097 72.849-72.849 9.84-9.841 10.996-26.154 3.255-45.936zm-95.347-68.769c14.465,5.66 30.428,16.775 44.948,31.295 14.52,14.519 25.635,30.483 31.294,44.948 4.322,11.046 4.85,20.448 1.343,23.954-3.506,3.504-12.907,2.977-23.954-1.343-14.465-5.66-30.428-16.775-44.948-31.295s-25.634-30.483-31.294-44.948c-4.322-11.046-4.849-20.448-1.343-23.954 1.544-1.544 4.23-2.306 7.698-2.306 4.406-1.42109e-14 10.074,1.231 16.256,3.649zm-138.658,138.658c-4.322-11.045-4.85-20.447-1.343-23.953l94.972-94.973c0.819,3.328 1.916,6.783 3.314,10.355 6.669,17.042 19.416,35.502 35.892,51.979 16.478,16.477 34.938,29.224 51.98,35.892 3.575,1.399 7.029,2.491 10.359,3.31l-48.856,48.856c-6.525-4.852-15.524-8.304-26.631-10.101-18.065-2.922-40.442-1.333-63.009,4.478-11.584,2.983-22.579,6.921-32.494,11.568-11.031-12.383-19.489-25.411-24.184-37.411zm11.993,68.502c12.23-9.578 29.915-17.673 49.801-22.792 13.55-3.489 26.868-5.276 38.833-5.276 5.595,0 10.897,0.392 15.784,1.182 11.709,1.894 20.073,6.221 21.309,11.022 1.237,4.802-3.998,12.63-13.335,19.943-12.23,9.578-29.915,17.673-49.802,22.792-19.888,5.121-39.287,6.574-54.618,4.094-11.709-1.894-20.074-6.221-21.31-11.022-1.236-4.802 4-12.63 13.338-19.943zm-208.746,60.708c5.66-14.465 16.775-30.428 31.295-44.948 14.519-14.52 30.483-25.635 44.948-31.294 6.181-2.419 11.848-3.649 16.254-3.649 3.468,0 6.156,0.761 7.7,2.306 3.506,3.506 2.979,12.908-1.343,23.954-5.66,14.465-16.775,30.428-31.295,44.948-14.52,14.52-30.483,25.634-44.948,31.294-11.049,4.322-20.45,4.848-23.954,1.343-3.507-3.505-2.98-12.907 1.343-23.954zm183.605,107.363c-14.519,14.52-30.482,25.635-44.948,31.294-11.047,4.322-20.448,4.849-23.953,1.343l-94.978-94.977c3.331-0.819 6.785-1.91 10.36-3.309 17.042-6.669 35.502-19.416 51.979-35.892 16.477-16.478 29.224-34.938 35.892-51.98 1.398-3.572 2.495-7.027 3.314-10.355l65.856,65.856 18.332,71.195c-5.794,9.041-13.216,18.188-21.854,26.825zm191.791-25.003c1.237,4.802-3.999,12.63-13.336,19.943-12.229,9.578-29.915,17.673-49.801,22.792-19.886,5.121-39.279,6.575-54.618,4.094-11.709-1.894-20.073-6.22-21.309-11.022l-33.49-130.064c3.281,0.986 6.816,1.793 10.6,2.406 5.913,0.957 12.286,1.43 18.979,1.43 13.754-0.001 28.85-1.999 44.03-5.908 22.566-5.811 42.928-15.225 57.336-26.508 3.018-2.364 5.724-4.778 8.12-7.226l33.489,130.063z" class="color000 svgShape"/><path fill="#f8fafc" d="M99.714 333.791c-4.007-4.005-10.5-4.005-14.506 0-4.006 4.006-4.006 10.501 0 14.506l41.029 41.029c2.003 2.002 4.628 3.004 7.253 3.004 2.625 0 5.25-1.002 7.253-3.004 4.006-4.006 4.006-10.501 0-14.506l-41.029-41.029zM315.115 87.618c-4.007-4.005-10.5-4.005-14.506 0l-46.157 46.157c-4.006 4.006-4.006 10.501 0 14.506 2.003 2.002 4.628 3.004 7.253 3.004s5.25-1.002 7.253-3.004l46.157-46.157c4.006-4.005 4.006-10.5 0-14.506z" class="color000 svgShape"/></svg></svg>