<?xml version="1.0" encoding="UTF-8" standalone="no"?><!-- Generator: Gravit.io --><svg xmlns="http://www.w3.org/2000/svg" xmlns:xlink="http://www.w3.org/1999/xlink" style="isolation:isolate" viewBox="0 0 512 512" width="512pt" height="512pt"><defs><clipPath id="_clipPath_qPhoEZ8mEFo8KewExbhLuiuMkNpcyAa4"><rect width="512" height="512"/></clipPath></defs><g clip-path="url(#_clipPath_qPhoEZ8mEFo8KewExbhLuiuMkNpcyAa4)"><g><g><path d=" M 355.737 251.104 C 391.99 204.013 370.512 134.928 313.928 116.816 L 313.928 106.338 C 319.979 103.204 324.121 96.9 324.121 89.617 L 324.121 18.832 C 324.122 8.432 315.69 0 305.29 0 L 206.71 0 C 196.31 0 187.878 8.432 187.878 18.832 L 187.878 89.617 C 187.878 96.901 192.02 103.206 198.071 106.338 L 198.071 116.816 C 141.466 134.936 120.02 204.027 156.262 251.104 C 151.854 254.551 149.009 259.905 149.009 265.934 C 149.009 287.013 149.009 471.012 149.009 493.168 C 149.009 503.568 157.441 512 167.841 512 L 344.158 512 C 354.558 512 362.99 503.568 362.99 493.168 C 362.99 472.089 362.99 288.09 362.99 265.934 C 362.991 259.904 360.147 254.551 355.737 251.104 Z  M 225.541 37.663 L 286.459 37.663 L 286.459 70.785 L 225.541 70.785 L 225.541 37.663 L 225.541 37.663 Z  M 325.327 474.337 L 300.778 474.337 L 300.778 460.636 C 300.778 450.236 292.346 441.804 281.946 441.804 C 271.546 441.804 263.114 450.236 263.114 460.636 L 263.114 474.337 L 248.885 474.337 L 248.885 460.636 C 248.885 450.236 240.453 441.804 230.053 441.804 C 219.653 441.804 211.221 450.236 211.221 460.636 L 211.221 474.337 L 186.671 474.337 L 186.671 427.204 L 325.325 427.204 L 325.325 474.337 L 325.327 474.337 Z  M 186.673 389.541 L 186.673 369.562 L 325.327 369.562 L 325.327 389.541 L 186.673 389.541 L 186.673 389.541 Z  M 325.327 331.899 L 186.673 331.899 L 186.673 284.766 C 201.564 284.766 309.349 284.766 325.327 284.766 L 325.327 331.899 L 325.327 331.899 Z  M 287.548 247.103 L 224.452 247.103 C 197.779 247.103 176.08 225.403 176.08 198.73 C 176.08 174.069 194.529 153.41 218.995 150.676 C 228.526 149.61 235.734 141.551 235.734 131.961 L 235.734 108.449 L 276.266 108.449 L 276.266 131.961 C 276.266 141.553 283.473 149.611 293.005 150.676 C 317.471 153.412 335.921 174.071 335.921 198.73 C 335.92 225.403 314.221 247.103 287.548 247.103 Z " fill="rgb(248,250,252)"/></g></g></g></svg>