<svg id="SvgjsSvg1012" width="288" height="288" xmlns="http://www.w3.org/2000/svg" version="1.1" xmlns:xlink="http://www.w3.org/1999/xlink" xmlns:svgjs="http://svgjs.com/svgjs"><defs id="SvgjsDefs1013"></defs><g id="SvgjsG1014"><svg xmlns="http://www.w3.org/2000/svg" enable-background="new 0 0 32 32" viewBox="0 0 32 32" width="288" height="288"><ellipse cx="13.5" cy="19" fill="none" stroke="#f8fafc" stroke-linecap="round" stroke-linejoin="round" stroke-miterlimit="10" stroke-width="2" rx="8.1" ry="11" transform="rotate(-45.001 13.5 19)" class="colorStroke000 svgStroke"></ellipse><path fill="none" stroke="#f8fafc" stroke-linecap="round" stroke-linejoin="round" stroke-miterlimit="10" stroke-width="2" d="M10.4 16.4c-.6 0-1.2.2-1.7.6-.5.5-.7 1.1-.6 1.7M17.1 15.9c-.6 0-1.2.2-1.7.6s-.7 1.1-.6 1.7M17 22.1c-.6 0-1.2.2-1.7.6s-.7 1.1-.6 1.7M14.2 9.7C15.1 5.1 18 3 21.5 3c4.1 0 7.5 2.9 7.5 9.5 0 5.5-2.3 8.4-5.5 9.3" class="colorStroke000 svgStroke"></path><path fill="none" stroke="#f8fafc" stroke-linecap="round" stroke-linejoin="round" stroke-miterlimit="10" stroke-width="2" d="M24.7,9.6c-0.4-0.4-0.9-0.7-1.5-0.7c-0.6,0-1.1,0.3-1.5,0.7" class="colorStroke000 svgStroke"></path></svg></g></svg>